<svg width="340" height="428" viewBox="0 0 340 428" fill="none" xmlns="http://www.w3.org/2000/svg">
<path d="M287.5 319C281.951 321.872 278.5 314.5 278.5 314.5L284 253V239.5C284 239.5 303.862 239.601 310 248.5C316.138 257.399 312.965 257.104 310 267.5C307.115 277.612 302.898 286.549 299.5 296.5C296.641 304.873 295.357 314.934 287.5 319Z" fill="#38312E"/>
<path d="M44.5 321.5C48.5543 326.508 61 321.5 61 321.5V264.5L44.5 243C44.5 243 29.9176 242.696 24 248.5C14.0994 258.21 26.4277 280.1 30 293.5C34.0915 308.848 36 311 44.5 321.5Z" fill="#38312E"/>
<path d="M287.5 319C281.951 321.872 278.5 314.5 278.5 314.5L284 253V239.5C284 239.5 303.862 239.601 310 248.5C316.138 257.399 312.965 257.104 310 267.5C307.115 277.612 302.898 286.549 299.5 296.5C296.641 304.873 295.357 314.934 287.5 319Z" stroke="black"/>
<path d="M44.5 321.5C48.5543 326.508 61 321.5 61 321.5V264.5L44.5 243C44.5 243 29.9176 242.696 24 248.5C14.0994 258.21 26.4277 280.1 30 293.5C34.0915 308.848 36 311 44.5 321.5Z" stroke="black"/>
<path d="M111 410.5C88.7085 398.264 66.9999 362.5 66.9999 362.5C66.9999 362.5 54.6366 337.264 49.9999 320C42.185 290.902 44.4687 286 41.9999 246.5C28.0631 250.015 27.8805 254.112 17.5 246.5C10 241 9.49992 239.5 9.49992 239.5L1.99994 225.5C1.99994 225.5 4.44551 205.202 1.99992 212C-0.69814 219.5 1.99991 200.5 1.99991 200.5C1.99991 200.5 1.13802 181.466 1.99991 165.5C3.61506 135.581 11.1308 114.914 28.4999 90.5C38.2857 76.7449 48.4975 62.7969 59.5 50.5C76.5 31.5 93.4895 20.288 124 9C142.673 2.0915 154.656 0.383924 174.5 2C202.764 4.30179 233.5 18 233.5 18C233.5 18 256.502 30.6313 268 42.5C277.95 52.7714 287.272 62.0174 297 72.5C304.247 80.3093 309.5 90.5 309.5 90.5L322 119.5L339 180L328 239.5L322 260L287.782 230.5C287.782 230.5 284.571 275.5 280 304C276.306 327.027 277.947 341.406 268 362.5C260.419 378.575 254.85 387.768 241.5 399.5C227.003 412.24 219.36 414.822 197.5 422C175.639 429.178 167.824 427.569 145.5 422C131.72 418.562 123.449 417.334 111 410.5Z" fill="#38312E"/>
<path d="M111 410.5C88.7085 398.264 66.9999 362.5 66.9999 362.5C66.9999 362.5 54.6366 337.264 49.9999 320C42.185 290.902 44.4687 286 41.9999 246.5C28.0631 250.015 27.8805 254.112 17.5 246.5C10 241 9.49992 239.5 9.49992 239.5L1.99994 225.5C1.99994 225.5 4.44551 205.202 1.99992 212C-0.69814 219.5 1.99991 200.5 1.99991 200.5C1.99991 200.5 1.13802 181.466 1.99991 165.5C3.61506 135.581 11.1308 114.914 28.4999 90.5C38.2857 76.7449 48.4975 62.7969 59.5 50.5C76.5 31.5 93.4895 20.288 124 9C142.673 2.0915 154.656 0.383924 174.5 2C202.764 4.30179 233.5 18 233.5 18C233.5 18 256.502 30.6313 268 42.5C277.95 52.7714 287.272 62.0174 297 72.5C304.247 80.3093 309.5 90.5 309.5 90.5L322 119.5L339 180L328 239.5L322 260L287.782 230.5C287.782 230.5 284.571 275.5 280 304C276.306 327.027 277.947 341.406 268 362.5C260.419 378.575 254.85 387.768 241.5 399.5C227.003 412.24 219.36 414.822 197.5 422C175.639 429.178 167.824 427.569 145.5 422C131.72 418.562 123.449 417.334 111 410.5Z" fill="black" fill-opacity="0.2"/>
<path d="M111 410.5C88.7085 398.264 66.9999 362.5 66.9999 362.5C66.9999 362.5 54.6366 337.264 49.9999 320C42.185 290.902 44.4687 286 41.9999 246.5C28.0631 250.015 27.8805 254.112 17.5 246.5C10 241 9.49992 239.5 9.49992 239.5L1.99994 225.5C1.99994 225.5 4.44551 205.202 1.99992 212C-0.69814 219.5 1.99991 200.5 1.99991 200.5C1.99991 200.5 1.13802 181.466 1.99991 165.5C3.61506 135.581 11.1308 114.914 28.4999 90.5C38.2857 76.7449 48.4975 62.7969 59.5 50.5C76.5 31.5 93.4895 20.288 124 9C142.673 2.0915 154.656 0.383924 174.5 2C202.764 4.30179 233.5 18 233.5 18C233.5 18 256.502 30.6313 268 42.5C277.95 52.7714 287.272 62.0174 297 72.5C304.247 80.3093 309.5 90.5 309.5 90.5L322 119.5L339 180L328 239.5L322 260L287.782 230.5C287.782 230.5 284.571 275.5 280 304C276.306 327.027 277.947 341.406 268 362.5C260.419 378.575 254.85 387.768 241.5 399.5C227.003 412.24 219.36 414.822 197.5 422C175.639 429.178 167.824 427.569 145.5 422C131.72 418.562 123.449 417.334 111 410.5Z" fill="black" fill-opacity="0.2"/>
<path d="M41.9999 246.5C41.7314 242.204 41.9999 246.5 41.9999 230.5C41.9999 204.406 37.9999 165.5 37.9999 165.5L49.9999 123L65.4999 98.5L82.4999 81.5L111 64.5L145.5 58C162.833 58.5 202.409 60.8955 213.5 64.5C233.5 71 250.167 88.3333 260 103L280 141L289 189V219L287.782 230.5M41.9999 246.5C44.4687 286 42.185 290.902 49.9999 320C54.6366 337.264 66.9999 362.5 66.9999 362.5C66.9999 362.5 88.7085 398.264 111 410.5C123.449 417.334 131.72 418.562 145.5 422C167.824 427.569 175.639 429.178 197.5 422C219.36 414.822 227.003 412.24 241.5 399.5C254.85 387.768 260.419 378.575 268 362.5C277.947 341.406 276.306 327.027 280 304C284.571 275.5 287.782 230.5 287.782 230.5M41.9999 246.5C28.0631 250.015 27.8805 254.112 17.5 246.5C10 241 9.49992 239.5 9.49992 239.5L1.99994 225.5C1.99994 225.5 4.44551 205.202 1.99992 212C-0.69814 219.5 1.99991 200.5 1.99991 200.5C1.99991 200.5 1.13802 181.466 1.99991 165.5C3.61506 135.581 11.1308 114.914 28.4999 90.5C38.2857 76.7449 48.4975 62.7969 59.5 50.5C76.5 31.5 93.4896 20.288 124 9C142.673 2.0915 154.656 0.383924 174.5 2C202.764 4.30179 233.5 18 233.5 18C233.5 18 256.502 30.6313 268 42.5C277.95 52.7714 287.272 62.0174 297 72.5C304.247 80.3093 309.5 90.5 309.5 90.5L322 119.5L339 180L328 239.5L322 260L287.782 230.5" stroke="black"/>
<path d="M96.5 224.996C82.5 224.996 85 224.5 82 223.5L80 221.5L98.5 211H119C128.6 211 128.333 217.996 128 221.496C123.333 222.663 110.5 224.996 96.5 224.996Z" fill="white" stroke="black"/>
<circle cx="106" cy="218" r="7" fill="#161616"/>
<path d="M215.5 222L202 217L215.5 209H235L249 217L235 222H215.5Z" fill="white" stroke="black"/>
<circle cx="226" cy="215" r="7" fill="#161616"/>
<path d="M132.187 319.938C122.937 323.943 112.406 338.938 110.187 333.438C107.969 327.938 126.187 314.438 126.187 314.438C132.469 309.438 146.187 304.438 146.187 304.438C146.187 304.438 171.779 299.537 187.187 301.438C202.951 303.383 213.687 307.938 224.687 314.438C228.839 316.892 237.687 331.938 231.687 333.438L220.187 323.938C220.187 323.938 210.006 316.782 202.687 314.438C189.112 310.092 180.857 310.89 166.687 312.438C152.981 313.936 144.84 314.46 132.187 319.938Z" fill="#010101" stroke="black"/>
<path d="M140.5 407.5C133.259 411.874 124.5 414.5 124.5 414.5L140.5 421.5C149.167 423 166.562 427 175 427C183.438 427 191.5 424.5 199 421.5C202.714 420.014 212.333 416.833 216.5 414.5C216.5 414.5 207.56 411.599 204 407.5C200.44 403.401 199 400.5 193.5 395C188.812 390.312 186.123 384.781 184 378.5C182.096 372.865 180.5 364.5 180.5 364.5H166.5C166.5 364.5 164.508 373.126 163.5 378.5C162.194 385.457 159.173 389.283 155 395C150.678 400.92 146.774 403.71 140.5 407.5Z" fill="black" stroke="black"/>
<path d="M79 189C72.6639 190.963 66.5 201.5 66.5 201.5C59.5305 201.5 67.5258 184.319 73.5 181C82.5 176 99.9999 176 99.9999 176C105.833 176.167 110.3 176.4 115.5 176C120.7 175.6 136 176 136 181C136 183.775 130.5 185.5 130.5 185.5H112C106.4 185.5 99.9999 182.583 90 185.5C80.0001 188.417 82.7303 187.844 79 189Z" fill="#0B0B0B"/>
<path d="M210 181C204.378 181 196.5 176 196.5 176C196.5 176 197.5 174.5 207 171.5C216.5 168.5 221.5 168.5 229.5 168.5H229.5C237.5 168.5 243.5 172.429 251 176C258.5 179.571 258.5 189 258.5 189C256.167 189 250.3 188.3 245.5 185.5C240.7 182.7 229.5 181 229.5 181L210 181Z" fill="#0B0B0B"/>
<path d="M79 189C72.6639 190.963 66.5 201.5 66.5 201.5C59.5305 201.5 67.5258 184.319 73.5 181C82.5 176 99.9999 176 99.9999 176C105.833 176.167 110.3 176.4 115.5 176C120.7 175.6 136 176 136 181C136 183.775 130.5 185.5 130.5 185.5H112C106.4 185.5 99.9999 182.583 90 185.5C80.0001 188.417 82.7303 187.844 79 189Z" stroke="black"/>
<path d="M210 181C204.378 181 196.5 176 196.5 176C196.5 176 197.5 174.5 207 171.5C216.5 168.5 221.5 168.5 229.5 168.5H229.5C237.5 168.5 243.5 172.429 251 176C258.5 179.571 258.5 189 258.5 189C256.167 189 250.3 188.3 245.5 185.5C240.7 182.7 229.5 181 229.5 181L210 181Z" stroke="black"/>
<path d="M122 333.5L138.5 327H172H194C194 327 207.419 327.814 212 329.5C216.581 331.186 221.5 333.5 221.5 333.5" stroke="black"/>
<path d="M27.5 251C30.8333 249.333 38.5 246 42.5 246L39.5 202C38.3333 192 39.9 172.9 39.5 166.5C39.1 160.1 43 149 45.5 144L55.5 112.5C60.6667 104.667 72.1 92.3 76.5 87.5C80.9 82.7 94.3333 71.3333 100.5 68.5L133 60.5H169.5C180.333 60.5 208.1 68.5 212.5 68.5C218 68.5 241 78.5 246 83C251 87.5 266.5 112.5 270.5 119.5C273.7 125.1 279.167 143.833 281.5 152.5L289 191.5V231.5C298.833 239.5 319.6 256.4 324 260C328.4 263.6 325.833 255.5 324 251L331 227.5C333.167 215.167 337.6 188.9 338 182.5C338.4 176.1 331.5 152.167 328 141L318.5 107.5L304.5 83L281.5 56.5L251 29L209 9L165 0.5L118.5 9L76.5 33.5L55.5 52.5L12.5 112.5L2 152.5V209V226.5L12.5 246L27.5 251Z" fill="black" stroke="black"/>
</svg>
