<svg width="500" height="100" viewBox="0 0 500 100" fill="none" xmlns="http://www.w3.org/2000/svg">
<rect width="500" height="100" rx="45" fill="url(#paint0_linear_2_4)"/>
<path d="M104.25 24.7143H107.679V28.1429H104.25V24.7143ZM107.679 24.7143H111.107V28.1429H107.679V24.7143ZM107.679 28.1429H111.107V31.5714H107.679V28.1429ZM107.679 31.5714H111.107V35H107.679V31.5714ZM107.679 35H111.107V38.4286H107.679V35ZM104.25 35H107.679V38.4286H104.25V35ZM104.25 31.5714H107.679V35H104.25V31.5714ZM104.25 28.1429H107.679V31.5714H104.25V28.1429ZM104.25 38.4286H107.679V41.8571H104.25V38.4286ZM104.25 41.8571H107.679V45.2857H104.25V41.8571ZM104.25 45.2857H107.679V48.7143H104.25V45.2857ZM107.679 41.8571H111.107V45.2857H107.679V41.8571ZM107.679 38.4286H111.107V41.8571H107.679V38.4286ZM107.679 45.2857H111.107V48.7143H107.679V45.2857ZM107.679 48.7143H111.107V52.1429H107.679V48.7143ZM104.25 52.1429H107.679V55.5714H104.25V52.1429ZM104.25 48.7143H107.679V52.1429H104.25V48.7143ZM104.25 55.5714H107.679V59H104.25V55.5714ZM107.679 55.5714H111.107V59H107.679V55.5714ZM107.679 52.1429H111.107V55.5714H107.679V52.1429ZM111.107 55.5714H114.536V59H111.107V55.5714ZM114.536 55.5714H117.964V59H114.536V55.5714ZM117.964 55.5714H121.393V59H117.964V55.5714ZM117.964 52.1429H121.393V55.5714H117.964V52.1429ZM114.536 52.1429H117.964V55.5714H114.536V52.1429ZM111.107 52.1429H114.536V55.5714H111.107V52.1429ZM111.107 24.7143H114.536V28.1429H111.107V24.7143ZM114.536 24.7143H117.964V28.1429H114.536V24.7143ZM117.964 24.7143H121.393V28.1429H117.964V24.7143ZM121.393 24.7143H124.821V28.1429H121.393V24.7143ZM117.964 28.1429H121.393V31.5714H117.964V28.1429ZM114.536 28.1429H117.964V31.5714H114.536V28.1429ZM111.107 28.1429H114.536V31.5714H111.107V28.1429ZM111.107 41.8571H114.536V45.2857H111.107V41.8571ZM114.536 38.4286H117.964V41.8571H114.536V38.4286ZM111.107 38.4286H114.536V41.8571H111.107V38.4286ZM114.536 41.8571H117.964V45.2857H114.536V41.8571ZM121.393 28.1429H124.821V31.5714H121.393V28.1429ZM121.393 52.1429H124.821V55.5714H121.393V52.1429ZM121.393 55.5714H124.821V59H121.393V55.5714ZM117.964 38.4286H121.393V41.8571H117.964V38.4286ZM117.964 41.8571H121.393V45.2857H117.964V41.8571ZM128.25 35H131.679V38.4286H128.25V35ZM128.25 31.5714H131.679V35H128.25V31.5714ZM131.679 31.5714H135.107V35H131.679V31.5714ZM131.679 35H135.107V38.4286H131.679V35ZM131.679 38.4286H135.107V41.8571H131.679V38.4286ZM131.679 41.8571H135.107V45.2857H131.679V41.8571ZM131.679 45.2857H135.107V48.7143H131.679V45.2857ZM128.25 45.2857H131.679V48.7143H128.25V45.2857ZM128.25 41.8571H131.679V45.2857H128.25V41.8571ZM128.25 38.4286H131.679V41.8571H128.25V38.4286ZM128.25 48.7143H131.679V52.1429H128.25V48.7143ZM131.679 48.7143H135.107V52.1429H131.679V48.7143ZM131.679 52.1429H135.107V55.5714H131.679V52.1429ZM131.679 55.5714H135.107V59H131.679V55.5714ZM128.25 55.5714H131.679V59H128.25V55.5714ZM128.25 52.1429H131.679V55.5714H128.25V52.1429ZM135.107 35H138.536V38.4286H135.107V35ZM138.536 35H141.964V38.4286H138.536V35ZM141.964 35H145.393V38.4286H141.964V35ZM141.964 31.5714H145.393V35H141.964V31.5714ZM138.536 31.5714H141.964V35H138.536V31.5714ZM135.107 38.4286H138.536V41.8571H135.107V38.4286ZM145.393 35H148.821V38.4286H145.393V35ZM141.964 38.4286H145.393V41.8571H141.964V38.4286ZM152.25 24.7143H159.107V31.5714H152.25V24.7143ZM152.25 35H159.107V59H152.25V35ZM169.42 31.5714H172.848V35H169.42V31.5714ZM165.991 31.5714H169.42V35H165.991V31.5714ZM165.991 35H169.42V38.4286H165.991V35ZM169.42 35H172.848V38.4286H169.42V35ZM172.848 31.5714H176.277V35H172.848V31.5714ZM176.277 31.5714H179.705V35H176.277V31.5714ZM179.705 31.5714H183.134V35H179.705V31.5714ZM179.705 35H183.134V38.4286H179.705V35ZM176.277 35H179.705V38.4286H176.277V35ZM183.134 35H186.562V38.4286H183.134V35ZM183.134 38.4286H186.562V41.8571H183.134V38.4286ZM183.134 48.7143H186.562V52.1429H183.134V48.7143ZM183.134 52.1429H186.562V55.5714H183.134V52.1429ZM179.705 52.1429H183.134V55.5714H179.705V52.1429ZM179.705 48.7143H183.134V52.1429H179.705V48.7143ZM179.705 38.4286H183.134V41.8571H179.705V38.4286ZM176.277 52.1429H179.705V55.5714H176.277V52.1429ZM179.705 55.5714H183.134V59H179.705V55.5714ZM176.277 55.5714H179.705V59H176.277V55.5714ZM172.848 55.5714H176.277V59H172.848V55.5714ZM169.42 55.5714H172.848V59H169.42V55.5714ZM165.991 55.5714H169.42V59H165.991V55.5714ZM165.991 52.1429H169.42V55.5714H165.991V52.1429ZM169.42 52.1429H172.848V55.5714H169.42V52.1429ZM165.991 48.7143H169.42V52.1429H165.991V48.7143ZM162.562 52.1429H165.991V55.5714H162.562V52.1429ZM162.562 48.7143H165.991V52.1429H162.562V48.7143ZM162.562 45.2857H165.991V48.7143H162.562V45.2857ZM162.562 41.8571H165.991V45.2857H162.562V41.8571ZM162.562 38.4286H165.991V41.8571H162.562V38.4286ZM162.562 35H165.991V38.4286H162.562V35ZM165.991 38.4286H169.42V41.8571H165.991V38.4286ZM165.991 41.8571H169.42V45.2857H165.991V41.8571ZM165.991 45.2857H169.42V48.7143H165.991V45.2857ZM172.848 52.1429H176.277V55.5714H172.848V52.1429ZM172.848 35H176.277V38.4286H172.848V35ZM207.116 24.7143H210.545V28.1429H207.116V24.7143ZM203.688 24.7143H207.116V28.1429H203.688V24.7143ZM203.688 28.1429H207.116V31.5714H203.688V28.1429ZM203.688 31.5714H207.116V35H203.688V31.5714ZM203.688 35H207.116V38.4286H203.688V35ZM203.688 38.4286H207.116V41.8571H203.688V38.4286ZM203.688 41.8571H207.116V45.2857H203.688V41.8571ZM203.688 45.2857H207.116V48.7143H203.688V45.2857ZM203.688 48.7143H207.116V52.1429H203.688V48.7143ZM203.688 52.1429H207.116V55.5714H203.688V52.1429ZM203.688 55.5714H207.116V59H203.688V55.5714ZM207.116 55.5714H210.545V59H207.116V55.5714ZM207.116 52.1429H210.545V55.5714H207.116V52.1429ZM207.116 48.7143H210.545V52.1429H207.116V48.7143ZM207.116 45.2857H210.545V48.7143H207.116V45.2857ZM207.116 41.8571H210.545V45.2857H207.116V41.8571ZM207.116 38.4286H210.545V41.8571H207.116V38.4286ZM207.116 35H210.545V38.4286H207.116V35ZM207.116 31.5714H210.545V35H207.116V31.5714ZM207.116 28.1429H210.545V31.5714H207.116V28.1429ZM210.545 41.8571H213.973V45.2857H210.545V41.8571ZM213.973 41.8571H217.402V45.2857H213.973V41.8571ZM213.973 38.4286H217.402V41.8571H213.973V38.4286ZM210.545 38.4286H213.973V41.8571H210.545V38.4286ZM213.973 35H217.402V38.4286H213.973V35ZM217.402 35H220.83V38.4286H217.402V35ZM217.402 31.5714H220.83V35H217.402V31.5714ZM217.402 28.1429H220.83V31.5714H217.402V28.1429ZM217.402 24.7143H220.83V28.1429H217.402V24.7143ZM220.83 24.7143H224.259V28.1429H220.83V24.7143ZM220.83 28.1429H224.259V31.5714H220.83V28.1429ZM220.83 31.5714H224.259V35H220.83V31.5714ZM213.973 45.2857H217.402V48.7143H213.973V45.2857ZM217.402 45.2857H220.83V48.7143H217.402V45.2857ZM217.402 48.7143H220.83V52.1429H217.402V48.7143ZM217.402 52.1429H220.83V55.5714H217.402V52.1429ZM217.402 55.5714H220.83V59H217.402V55.5714ZM220.83 55.5714H224.259V59H220.83V55.5714ZM220.83 52.1429H224.259V55.5714H220.83V52.1429ZM220.83 48.7143H224.259V52.1429H220.83V48.7143ZM220.83 45.2857H224.259V48.7143H220.83V45.2857ZM217.402 41.8571H220.83V45.2857H217.402V41.8571ZM251.688 55.5714H248.259V52.1429H251.688V55.5714ZM251.688 59H248.259V55.5714H251.688V59ZM248.259 59H244.83V55.5714H248.259V59ZM248.259 55.5714H244.83V52.1429H248.259V55.5714ZM248.259 52.1429H244.83V48.7143H248.259V52.1429ZM248.259 48.7143H244.83V45.2857H248.259V48.7143ZM248.259 45.2857H244.83V41.8571H248.259V45.2857ZM251.688 45.2857H248.259V41.8571H251.688V45.2857ZM251.688 48.7143H248.259V45.2857H251.688V48.7143ZM251.688 52.1429H248.259V48.7143H251.688V52.1429ZM251.688 41.8571H248.259V38.4286H251.688V41.8571ZM248.259 41.8571H244.83V38.4286H248.259V41.8571ZM248.259 38.4286H244.83V35H248.259V38.4286ZM248.259 35H244.83V31.5714H248.259V35ZM251.688 35H248.259V31.5714H251.688V35ZM251.688 38.4286H248.259V35H251.688V38.4286ZM234.545 35H231.116V31.5714H234.545V35ZM231.116 35H227.688V31.5714H231.116V35ZM231.116 38.4286H227.688V35H231.116V38.4286ZM231.116 41.8571H227.688V38.4286H231.116V41.8571ZM231.116 45.2857H227.688V41.8571H231.116V45.2857ZM231.116 48.7143H227.688V45.2857H231.116V48.7143ZM231.116 52.1429H227.688V48.7143H231.116V52.1429ZM231.116 55.5714H227.688V52.1429H231.116V55.5714ZM234.545 48.7143H231.116V45.2857H234.545V48.7143ZM234.545 45.2857H231.116V41.8571H234.545V45.2857ZM234.545 41.8571H231.116V38.4286H234.545V41.8571ZM234.545 38.4286H231.116V35H234.545V38.4286ZM234.545 52.1429H231.116V48.7143H234.545V52.1429ZM244.83 55.5714H241.402V52.1429H244.83V55.5714ZM241.402 55.5714H237.973V52.1429H241.402V55.5714ZM237.973 55.5714H234.545V52.1429H237.973V55.5714ZM237.973 59H234.545V55.5714H237.973V59ZM234.545 59H231.116V55.5714H234.545V59ZM234.545 55.5714H231.116V52.1429H234.545V55.5714ZM241.402 59H237.973V55.5714H241.402V59ZM255.125 24.7143H258.554V28.1429H255.125V24.7143ZM258.554 24.7143H261.982V28.1429H258.554V24.7143ZM258.554 28.1429H261.982V31.5714H258.554V28.1429ZM258.554 31.5714H261.982V35H258.554V31.5714ZM258.554 35H261.982V38.4286H258.554V35ZM258.554 38.4286H261.982V41.8571H258.554V38.4286ZM258.554 41.8571H261.982V45.2857H258.554V41.8571ZM255.125 41.8571H258.554V45.2857H255.125V41.8571ZM255.125 45.2857H258.554V48.7143H255.125V45.2857ZM255.125 48.7143H258.554V52.1429H255.125V48.7143ZM255.125 52.1429H258.554V55.5714H255.125V52.1429ZM255.125 55.5714H258.554V59H255.125V55.5714ZM258.554 55.5714H261.982V59H258.554V55.5714ZM258.554 52.1429H261.982V55.5714H258.554V52.1429ZM258.554 48.7143H261.982V52.1429H258.554V48.7143ZM258.554 45.2857H261.982V48.7143H258.554V45.2857ZM255.125 38.4286H258.554V41.8571H255.125V38.4286ZM255.125 35H258.554V38.4286H255.125V35ZM255.125 31.5714H258.554V35H255.125V31.5714ZM255.125 28.1429H258.554V31.5714H255.125V28.1429ZM265.438 35H268.866V38.4286H265.438V35ZM265.438 31.5714H268.866V35H265.438V31.5714ZM268.866 31.5714H272.295V35H268.866V31.5714ZM268.866 35H272.295V38.4286H268.866V35ZM268.866 38.4286H272.295V41.8571H268.866V38.4286ZM268.866 41.8571H272.295V45.2857H268.866V41.8571ZM268.866 45.2857H272.295V48.7143H268.866V45.2857ZM265.438 45.2857H268.866V48.7143H265.438V45.2857ZM265.438 41.8571H268.866V45.2857H265.438V41.8571ZM265.438 38.4286H268.866V41.8571H265.438V38.4286ZM265.438 48.7143H268.866V52.1429H265.438V48.7143ZM268.866 48.7143H272.295V52.1429H268.866V48.7143ZM268.866 52.1429H272.295V55.5714H268.866V52.1429ZM268.866 55.5714H272.295V59H268.866V55.5714ZM265.438 55.5714H268.866V59H265.438V55.5714ZM265.438 52.1429H268.866V55.5714H265.438V52.1429ZM279.152 55.5714H282.58V59H279.152V55.5714ZM282.58 55.5714H286.009V59H282.58V55.5714ZM282.58 52.1429H286.009V55.5714H282.58V52.1429ZM282.58 48.7143H286.009V52.1429H282.58V48.7143ZM282.58 45.2857H286.009V48.7143H282.58V45.2857ZM282.58 41.8571H286.009V45.2857H282.58V41.8571ZM282.58 38.4286H286.009V41.8571H282.58V38.4286ZM282.58 35H286.009V38.4286H282.58V35ZM279.152 41.8571H282.58V45.2857H279.152V41.8571ZM279.152 45.2857H282.58V48.7143H279.152V45.2857ZM279.152 48.7143H282.58V52.1429H279.152V48.7143ZM279.152 52.1429H282.58V55.5714H279.152V52.1429ZM279.152 38.4286H282.58V41.8571H279.152V38.4286ZM272.295 35H275.723V38.4286H272.295V35ZM275.723 35H279.152V38.4286H275.723V35ZM279.152 31.5714H282.58V35H279.152V31.5714ZM279.152 35H282.58V38.4286H279.152V35ZM275.723 31.5714H279.152V35H275.723V31.5714ZM292.866 55.5714H296.295V59H292.866V55.5714ZM296.295 55.5714H299.723V59H296.295V55.5714ZM296.295 52.1429H299.723V55.5714H296.295V52.1429ZM296.295 48.7143H299.723V52.1429H296.295V48.7143ZM296.295 45.2857H299.723V48.7143H296.295V45.2857ZM296.295 41.8571H299.723V45.2857H296.295V41.8571ZM296.295 38.4286H299.723V41.8571H296.295V38.4286ZM296.295 35H299.723V38.4286H296.295V35ZM292.866 41.8571H296.295V45.2857H292.866V41.8571ZM292.866 45.2857H296.295V48.7143H292.866V45.2857ZM292.866 48.7143H296.295V52.1429H292.866V48.7143ZM292.866 52.1429H296.295V55.5714H292.866V52.1429ZM292.866 38.4286H296.295V41.8571H292.866V38.4286ZM286.009 35H289.438V38.4286H286.009V35ZM289.438 35H292.866V38.4286H289.438V35ZM292.866 31.5714H296.295V35H292.866V31.5714ZM292.866 35H296.295V38.4286H292.866V35ZM289.438 31.5714H292.866V35H289.438V31.5714ZM303.125 24.7143H309.982V31.5714H303.125V24.7143ZM303.125 35H309.982V59H303.125V35ZM320.295 31.5714H323.723V35H320.295V31.5714ZM316.866 31.5714H320.295V35H316.866V31.5714ZM316.866 35H320.295V38.4286H316.866V35ZM320.295 35H323.723V38.4286H320.295V35ZM323.723 31.5714H327.152V35H323.723V31.5714ZM327.152 31.5714H330.58V35H327.152V31.5714ZM330.58 31.5714H334.009V35H330.58V31.5714ZM330.58 35H334.009V38.4286H330.58V35ZM327.152 35H330.58V38.4286H327.152V35ZM334.009 35H337.438V38.4286H334.009V35ZM334.009 38.4286H337.438V41.8571H334.009V38.4286ZM334.009 48.7143H337.438V52.1429H334.009V48.7143ZM334.009 52.1429H337.438V55.5714H334.009V52.1429ZM330.58 52.1429H334.009V55.5714H330.58V52.1429ZM330.58 48.7143H334.009V52.1429H330.58V48.7143ZM330.58 38.4286H334.009V41.8571H330.58V38.4286ZM327.152 52.1429H330.58V55.5714H327.152V52.1429ZM330.58 55.5714H334.009V59H330.58V55.5714ZM327.152 55.5714H330.58V59H327.152V55.5714ZM323.723 55.5714H327.152V59H323.723V55.5714ZM320.295 55.5714H323.723V59H320.295V55.5714ZM316.866 55.5714H320.295V59H316.866V55.5714ZM316.866 52.1429H320.295V55.5714H316.866V52.1429ZM320.295 52.1429H323.723V55.5714H320.295V52.1429ZM316.866 48.7143H320.295V52.1429H316.866V48.7143ZM313.438 52.1429H316.866V55.5714H313.438V52.1429ZM313.438 48.7143H316.866V52.1429H313.438V48.7143ZM313.438 45.2857H316.866V48.7143H313.438V45.2857ZM313.438 41.8571H316.866V45.2857H313.438V41.8571ZM313.438 38.4286H316.866V41.8571H313.438V38.4286ZM313.438 35H316.866V38.4286H313.438V35ZM316.866 38.4286H320.295V41.8571H316.866V38.4286ZM316.866 41.8571H320.295V45.2857H316.866V41.8571ZM316.866 45.2857H320.295V48.7143H316.866V45.2857ZM323.723 52.1429H327.152V55.5714H323.723V52.1429ZM323.723 35H327.152V38.4286H323.723V35ZM340.875 35H344.304V38.4286H340.875V35ZM340.875 31.5714H344.304V35H340.875V31.5714ZM344.304 31.5714H347.732V35H344.304V31.5714ZM344.304 35H347.732V38.4286H344.304V35ZM344.304 38.4286H347.732V41.8571H344.304V38.4286ZM344.304 41.8571H347.732V45.2857H344.304V41.8571ZM344.304 45.2857H347.732V48.7143H344.304V45.2857ZM340.875 45.2857H344.304V48.7143H340.875V45.2857ZM340.875 41.8571H344.304V45.2857H340.875V41.8571ZM340.875 38.4286H344.304V41.8571H340.875V38.4286ZM340.875 48.7143H344.304V52.1429H340.875V48.7143ZM344.304 48.7143H347.732V52.1429H344.304V48.7143ZM344.304 52.1429H347.732V55.5714H344.304V52.1429ZM344.304 55.5714H347.732V59H344.304V55.5714ZM340.875 55.5714H344.304V59H340.875V55.5714ZM340.875 52.1429H344.304V55.5714H340.875V52.1429ZM358.018 55.5714H361.446V59H358.018V55.5714ZM361.446 55.5714H364.875V59H361.446V55.5714ZM361.446 52.1429H364.875V55.5714H361.446V52.1429ZM361.446 48.7143H364.875V52.1429H361.446V48.7143ZM361.446 45.2857H364.875V48.7143H361.446V45.2857ZM361.446 41.8571H364.875V45.2857H361.446V41.8571ZM361.446 38.4286H364.875V41.8571H361.446V38.4286ZM361.446 35H364.875V38.4286H361.446V35ZM358.018 41.8571H361.446V45.2857H358.018V41.8571ZM358.018 45.2857H361.446V48.7143H358.018V45.2857ZM358.018 48.7143H361.446V52.1429H358.018V48.7143ZM358.018 52.1429H361.446V55.5714H358.018V52.1429ZM358.018 38.4286H361.446V41.8571H358.018V38.4286ZM347.732 35H351.161V38.4286H347.732V35ZM351.161 35H354.589V38.4286H351.161V35ZM354.589 35H358.018V38.4286H354.589V35ZM354.589 31.5714H358.018V35H354.589V31.5714ZM358.018 31.5714H361.446V35H358.018V31.5714ZM358.018 35H361.446V38.4286H358.018V35ZM351.161 31.5714H354.589V35H351.161V31.5714ZM340.875 24.7143H344.304V28.1429H340.875V24.7143ZM344.304 24.7143H347.732V28.1429H344.304V24.7143ZM344.304 28.1429H347.732V31.5714H344.304V28.1429ZM340.875 28.1429H344.304V31.5714H340.875V28.1429ZM388.884 59H385.455V55.5714H388.884V59ZM388.884 55.5714H385.455V52.1429H388.884V55.5714ZM385.455 55.5714H382.027V52.1429H385.455V55.5714ZM382.027 59H378.598V55.5714H382.027V59ZM378.598 59H375.17V55.5714H378.598V59ZM375.17 59H371.741V55.5714H375.17V59ZM375.17 55.5714H371.741V52.1429H375.17V55.5714ZM378.598 55.5714H375.17V52.1429H378.598V55.5714ZM371.741 55.5714H368.312V52.1429H371.741V55.5714ZM371.741 52.1429H368.312V48.7143H371.741V52.1429ZM371.741 38.4286H368.312V35H371.741V38.4286ZM375.17 38.4286H371.741V35H375.17V38.4286ZM375.17 52.1429H371.741V48.7143H375.17V52.1429ZM378.598 38.4286H375.17V35H378.598V38.4286ZM375.17 35H371.741V31.5714H375.17V35ZM378.598 35H375.17V31.5714H378.598V35ZM382.027 35H378.598V31.5714H382.027V35ZM385.455 35H382.027V31.5714H385.455V35ZM388.884 35H385.455V31.5714H388.884V35ZM388.884 38.4286H385.455V35H388.884V38.4286ZM385.455 38.4286H382.027V35H385.455V38.4286ZM388.884 41.8571H385.455V38.4286H388.884V41.8571ZM392.312 38.4286H388.884V35H392.312V38.4286ZM392.312 41.8571H388.884V38.4286H392.312V41.8571ZM392.312 45.2857H388.884V41.8571H392.312V45.2857ZM392.312 48.7143H388.884V45.2857H392.312V48.7143ZM392.312 52.1429H388.884V48.7143H392.312V52.1429ZM392.312 55.5714H388.884V52.1429H392.312V55.5714ZM388.884 52.1429H385.455V48.7143H388.884V52.1429ZM388.884 48.7143H385.455V45.2857H388.884V48.7143ZM388.884 45.2857H385.455V41.8571H388.884V45.2857ZM382.027 38.4286H378.598V35H382.027V38.4286ZM382.027 55.5714H378.598V52.1429H382.027V55.5714ZM388.884 55.5714H392.312V59H388.884V55.5714ZM382.027 41.8571H385.455V45.2857H382.027V41.8571ZM378.598 41.8571H382.027V45.2857H378.598V41.8571ZM375.17 41.8571H378.598V45.2857H375.17V41.8571ZM371.741 41.8571H375.17V45.2857H371.741V41.8571ZM368.312 45.2857H371.741V48.7143H368.312V45.2857ZM371.741 45.2857H375.17V48.7143H371.741V45.2857ZM382.027 45.2857H385.455V48.7143H382.027V45.2857ZM378.598 45.2857H382.027V48.7143H378.598V45.2857ZM375.17 45.2857H378.598V48.7143H375.17V45.2857Z" fill="white"/>
<defs>
<linearGradient id="paint0_linear_2_4" x1="250" y1="0" x2="250" y2="100" gradientUnits="userSpaceOnUse">
<stop offset="0.56" stop-color="#6B8C3C"/>
<stop offset="1"/>
</linearGradient>
</defs>
</svg>
