<svg width="500" height="100" viewBox="0 0 500 100" fill="none" xmlns="http://www.w3.org/2000/svg">
<rect width="500" height="100" rx="45" fill="url(#paint0_linear_3_13)"/>
<path d="M145.406 24.7143H148.835V28.1429H145.406V24.7143ZM148.835 24.7143H152.263V28.1429H148.835V24.7143ZM148.835 28.1429H152.263V31.5714H148.835V28.1429ZM148.835 31.5714H152.263V35H148.835V31.5714ZM148.835 35H152.263V38.4286H148.835V35ZM145.406 31.5714H148.835V35H145.406V31.5714ZM145.406 28.1429H148.835V31.5714H145.406V28.1429ZM145.406 35H148.835V38.4286H145.406V35ZM145.406 38.4286H148.835V41.8571H145.406V38.4286ZM145.406 45.2857H148.835V48.7143H145.406V45.2857ZM145.406 41.8571H148.835V45.2857H145.406V41.8571ZM148.835 38.4286H152.263V41.8571H148.835V38.4286ZM148.835 41.8571H152.263V45.2857H148.835V41.8571ZM148.835 45.2857H152.263V48.7143H148.835V45.2857ZM148.835 48.7143H152.263V52.1429H148.835V48.7143ZM145.406 48.7143H148.835V52.1429H145.406V48.7143ZM145.406 55.5714H148.835V59H145.406V55.5714ZM148.835 55.5714H152.263V59H148.835V55.5714ZM148.835 52.1429H152.263V55.5714H148.835V52.1429ZM145.406 52.1429H148.835V55.5714H145.406V52.1429ZM165.978 55.5714H169.406V59H165.978V55.5714ZM165.978 52.1429H169.406V55.5714H165.978V52.1429ZM165.978 48.7143H169.406V52.1429H165.978V48.7143ZM165.978 45.2857H169.406V48.7143H165.978V45.2857ZM165.978 41.8571H169.406V45.2857H165.978V41.8571ZM165.978 38.4286H169.406V41.8571H165.978V38.4286ZM165.978 24.7143H169.406V28.1429H165.978V24.7143ZM162.549 24.7143H165.978V28.1429H162.549V24.7143ZM162.549 28.1429H165.978V31.5714H162.549V28.1429ZM162.549 31.5714H165.978V35H162.549V31.5714ZM162.549 35H165.978V38.4286H162.549V35ZM165.978 35H169.406V38.4286H165.978V35ZM165.978 31.5714H169.406V35H165.978V31.5714ZM165.978 28.1429H169.406V31.5714H165.978V28.1429ZM162.549 38.4286H165.978V41.8571H162.549V38.4286ZM162.549 52.1429H165.978V55.5714H162.549V52.1429ZM162.549 48.7143H165.978V52.1429H162.549V48.7143ZM162.549 45.2857H165.978V48.7143H162.549V45.2857ZM162.549 41.8571H165.978V45.2857H162.549V41.8571ZM162.549 55.5714H165.978V59H162.549V55.5714ZM159.121 38.4286H162.549V41.8571H159.121V38.4286ZM155.692 38.4286H159.121V41.8571H155.692V38.4286ZM152.263 38.4286H155.692V41.8571H152.263V38.4286ZM152.263 41.8571H155.692V45.2857H152.263V41.8571ZM155.692 41.8571H159.121V45.2857H155.692V41.8571ZM159.121 41.8571H162.549V45.2857H159.121V41.8571ZM186.558 52.1429H189.987V55.5714H186.558V52.1429ZM186.558 55.5714H189.987V59H186.558V55.5714ZM183.129 55.5714H186.558V59H183.129V55.5714ZM183.129 52.1429H186.558V55.5714H183.129V52.1429ZM179.701 55.5714H183.129V59H179.701V55.5714ZM179.701 52.1429H183.129V55.5714H179.701V52.1429ZM176.272 52.1429H179.701V55.5714H176.272V52.1429ZM176.272 48.7143H179.701V52.1429H176.272V48.7143ZM176.272 45.2857H179.701V48.7143H176.272V45.2857ZM176.272 41.8571H179.701V45.2857H176.272V41.8571ZM176.272 38.4286H179.701V41.8571H176.272V38.4286ZM176.272 35H179.701V38.4286H176.272V35ZM179.701 45.2857H183.129V48.7143H179.701V45.2857ZM179.701 48.7143H183.129V52.1429H179.701V48.7143ZM179.701 41.8571H183.129V45.2857H179.701V41.8571ZM179.701 38.4286H183.129V41.8571H179.701V38.4286ZM179.701 24.7143H183.129V28.1429H179.701V24.7143ZM179.701 28.1429H183.129V31.5714H179.701V28.1429ZM179.701 31.5714H183.129V35H179.701V31.5714ZM179.701 35H183.129V38.4286H179.701V35ZM176.272 31.5714H179.701V35H176.272V31.5714ZM172.844 35H176.272V38.4286H172.844V35ZM183.129 35H186.558V38.4286H183.129V35ZM186.558 35H189.987V38.4286H186.558V35ZM176.272 28.1429H179.701V31.5714H176.272V28.1429ZM172.844 38.4286H176.272V41.8571H172.844V38.4286ZM183.129 38.4286H186.558V41.8571H183.129V38.4286ZM186.558 38.4286H189.987V41.8571H186.558V38.4286ZM200.263 24.7143H203.692V28.1429H200.263V24.7143ZM196.835 24.7143H200.263V28.1429H196.835V24.7143ZM196.835 28.1429H200.263V31.5714H196.835V28.1429ZM200.263 28.1429H203.692V31.5714H200.263V28.1429ZM203.692 28.1429H207.121V31.5714H203.692V28.1429ZM203.692 24.7143H207.121V28.1429H203.692V24.7143ZM207.121 24.7143H210.549V28.1429H207.121V24.7143ZM210.549 24.7143H213.978V28.1429H210.549V24.7143ZM210.549 28.1429H213.978V31.5714H210.549V28.1429ZM207.121 28.1429H210.549V31.5714H207.121V28.1429ZM210.549 31.5714H213.978V35H210.549V31.5714ZM213.978 28.1429H217.406V31.5714H213.978V28.1429ZM213.978 31.5714H217.406V35H213.978V31.5714ZM213.978 48.7143H217.406V52.1429H213.978V48.7143ZM213.978 52.1429H217.406V55.5714H213.978V52.1429ZM210.549 52.1429H213.978V55.5714H210.549V52.1429ZM210.549 48.7143H213.978V52.1429H210.549V48.7143ZM207.121 52.1429H210.549V55.5714H207.121V52.1429ZM210.549 55.5714H213.978V59H210.549V55.5714ZM207.121 55.5714H210.549V59H207.121V55.5714ZM203.692 55.5714H207.121V59H203.692V55.5714ZM203.692 52.1429H207.121V55.5714H203.692V52.1429ZM200.263 55.5714H203.692V59H200.263V55.5714ZM196.835 55.5714H200.263V59H196.835V55.5714ZM196.835 52.1429H200.263V55.5714H196.835V52.1429ZM200.263 52.1429H203.692V55.5714H200.263V52.1429ZM200.263 48.7143H203.692V52.1429H200.263V48.7143ZM196.835 48.7143H200.263V52.1429H196.835V48.7143ZM193.406 52.1429H196.835V55.5714H193.406V52.1429ZM193.406 48.7143H196.835V52.1429H193.406V48.7143ZM193.406 45.2857H196.835V48.7143H193.406V45.2857ZM193.406 41.8571H196.835V45.2857H193.406V41.8571ZM193.406 38.4286H196.835V41.8571H193.406V38.4286ZM193.406 35H196.835V38.4286H193.406V35ZM193.406 31.5714H196.835V35H193.406V31.5714ZM196.835 31.5714H200.263V35H196.835V31.5714ZM193.406 28.1429H196.835V31.5714H193.406V28.1429ZM200.263 31.5714H203.692V35H200.263V31.5714ZM196.835 35H200.263V38.4286H196.835V35ZM196.835 38.4286H200.263V41.8571H196.835V38.4286ZM196.835 41.8571H200.263V45.2857H196.835V41.8571ZM196.835 45.2857H200.263V48.7143H196.835V45.2857ZM241.415 59H237.987V55.5714H241.415V59ZM241.415 55.5714H237.987V52.1429H241.415V55.5714ZM237.987 55.5714H234.558V52.1429H237.987V55.5714ZM234.558 59H231.129V55.5714H234.558V59ZM231.129 59H227.701V55.5714H231.129V59ZM227.701 59H224.272V55.5714H227.701V59ZM227.701 55.5714H224.272V52.1429H227.701V55.5714ZM231.129 55.5714H227.701V52.1429H231.129V55.5714ZM224.272 55.5714H220.844V52.1429H224.272V55.5714ZM224.272 52.1429H220.844V48.7143H224.272V52.1429ZM224.272 38.4286H220.844V35H224.272V38.4286ZM227.701 38.4286H224.272V35H227.701V38.4286ZM227.701 52.1429H224.272V48.7143H227.701V52.1429ZM231.129 38.4286H227.701V35H231.129V38.4286ZM227.701 35H224.272V31.5714H227.701V35ZM231.129 35H227.701V31.5714H231.129V35ZM234.558 35H231.129V31.5714H234.558V35ZM237.987 35H234.558V31.5714H237.987V35ZM241.415 35H237.987V31.5714H241.415V35ZM241.415 38.4286H237.987V35H241.415V38.4286ZM237.987 38.4286H234.558V35H237.987V38.4286ZM241.415 41.8571H237.987V38.4286H241.415V41.8571ZM244.844 38.4286H241.415V35H244.844V38.4286ZM244.844 41.8571H241.415V38.4286H244.844V41.8571ZM244.844 45.2857H241.415V41.8571H244.844V45.2857ZM244.844 48.7143H241.415V45.2857H244.844V48.7143ZM244.844 52.1429H241.415V48.7143H244.844V52.1429ZM244.844 55.5714H241.415V52.1429H244.844V55.5714ZM241.415 52.1429H237.987V48.7143H241.415V52.1429ZM241.415 48.7143H237.987V45.2857H241.415V48.7143ZM241.415 45.2857H237.987V41.8571H241.415V45.2857ZM234.558 38.4286H231.129V35H234.558V38.4286ZM234.558 55.5714H231.129V52.1429H234.558V55.5714ZM241.415 55.5714H244.844V59H241.415V55.5714ZM234.558 41.8571H237.987V45.2857H234.558V41.8571ZM231.129 41.8571H234.558V45.2857H231.129V41.8571ZM227.701 41.8571H231.129V45.2857H227.701V41.8571ZM224.272 41.8571H227.701V45.2857H224.272V41.8571ZM220.844 45.2857H224.272V48.7143H220.844V45.2857ZM224.272 45.2857H227.701V48.7143H224.272V45.2857ZM234.558 45.2857H237.987V48.7143H234.558V45.2857ZM231.129 45.2857H234.558V48.7143H231.129V45.2857ZM227.701 45.2857H231.129V48.7143H227.701V45.2857ZM248.281 35H251.71V38.4286H248.281V35ZM248.281 31.5714H251.71V35H248.281V31.5714ZM251.71 31.5714H255.138V35H251.71V31.5714ZM251.71 35H255.138V38.4286H251.71V35ZM251.71 38.4286H255.138V41.8571H251.71V38.4286ZM251.71 41.8571H255.138V45.2857H251.71V41.8571ZM251.71 45.2857H255.138V48.7143H251.71V45.2857ZM248.281 45.2857H251.71V48.7143H248.281V45.2857ZM248.281 41.8571H251.71V45.2857H248.281V41.8571ZM248.281 38.4286H251.71V41.8571H248.281V38.4286ZM248.281 48.7143H251.71V52.1429H248.281V48.7143ZM251.71 48.7143H255.138V52.1429H251.71V48.7143ZM251.71 52.1429H255.138V55.5714H251.71V52.1429ZM251.71 55.5714H255.138V59H251.71V55.5714ZM248.281 55.5714H251.71V59H248.281V55.5714ZM248.281 52.1429H251.71V55.5714H248.281V52.1429ZM265.424 55.5714H268.853V59H265.424V55.5714ZM268.853 55.5714H272.281V59H268.853V55.5714ZM268.853 52.1429H272.281V55.5714H268.853V52.1429ZM268.853 48.7143H272.281V52.1429H268.853V48.7143ZM268.853 45.2857H272.281V48.7143H268.853V45.2857ZM268.853 41.8571H272.281V45.2857H268.853V41.8571ZM268.853 38.4286H272.281V41.8571H268.853V38.4286ZM268.853 35H272.281V38.4286H268.853V35ZM265.424 41.8571H268.853V45.2857H265.424V41.8571ZM265.424 45.2857H268.853V48.7143H265.424V45.2857ZM265.424 48.7143H268.853V52.1429H265.424V48.7143ZM265.424 52.1429H268.853V55.5714H265.424V52.1429ZM265.424 38.4286H268.853V41.8571H265.424V38.4286ZM255.138 35H258.567V38.4286H255.138V35ZM258.567 35H261.996V38.4286H258.567V35ZM261.996 35H265.424V38.4286H261.996V35ZM261.996 31.5714H265.424V35H261.996V31.5714ZM265.424 31.5714H268.853V35H265.424V31.5714ZM265.424 35H268.853V38.4286H265.424V35ZM258.567 31.5714H261.996V35H258.567V31.5714ZM275.719 31.5714H279.147V35H275.719V31.5714ZM279.147 31.5714H282.576V35H279.147V31.5714ZM279.147 35H282.576V38.4286H279.147V35ZM279.147 38.4286H282.576V41.8571H279.147V38.4286ZM279.147 41.8571H282.576V45.2857H279.147V41.8571ZM279.147 45.2857H282.576V48.7143H279.147V45.2857ZM275.719 45.2857H279.147V48.7143H275.719V45.2857ZM275.719 41.8571H279.147V45.2857H275.719V41.8571ZM275.719 38.4286H279.147V41.8571H275.719V38.4286ZM275.719 35H279.147V38.4286H275.719V35ZM279.147 48.7143H282.576V52.1429H279.147V48.7143ZM282.576 48.7143H286.004V52.1429H282.576V48.7143ZM282.576 52.1429H286.004V55.5714H282.576V52.1429ZM286.004 52.1429H289.433V55.5714H286.004V52.1429ZM286.004 55.5714H289.433V59H286.004V55.5714ZM289.433 52.1429H292.862V55.5714H289.433V52.1429ZM289.433 48.7143H292.862V52.1429H289.433V48.7143ZM292.862 48.7143H296.29V52.1429H292.862V48.7143ZM292.862 45.2857H296.29V48.7143H292.862V45.2857ZM292.862 41.8571H296.29V45.2857H292.862V41.8571ZM292.862 38.4286H296.29V41.8571H292.862V38.4286ZM292.862 35H296.29V38.4286H292.862V35ZM292.862 31.5714H296.29V35H292.862V31.5714ZM296.29 41.8571H299.719V45.2857H296.29V41.8571ZM296.29 45.2857H299.719V48.7143H296.29V45.2857ZM296.29 38.4286H299.719V41.8571H296.29V38.4286ZM296.29 35H299.719V38.4286H296.29V35ZM296.29 31.5714H299.719V35H296.29V31.5714ZM286.004 48.7143H289.433V52.1429H286.004V48.7143ZM282.576 45.2857H286.004V48.7143H282.576V45.2857ZM289.433 45.2857H292.862V48.7143H289.433V45.2857ZM323.728 59H320.299V55.5714H323.728V59ZM323.728 55.5714H320.299V52.1429H323.728V55.5714ZM320.299 55.5714H316.871V52.1429H320.299V55.5714ZM316.871 59H313.442V55.5714H316.871V59ZM313.442 59H310.013V55.5714H313.442V59ZM310.013 59H306.585V55.5714H310.013V59ZM310.013 55.5714H306.585V52.1429H310.013V55.5714ZM313.442 55.5714H310.013V52.1429H313.442V55.5714ZM306.585 55.5714H303.156V52.1429H306.585V55.5714ZM306.585 52.1429H303.156V48.7143H306.585V52.1429ZM306.585 38.4286H303.156V35H306.585V38.4286ZM310.013 38.4286H306.585V35H310.013V38.4286ZM310.013 52.1429H306.585V48.7143H310.013V52.1429ZM313.442 38.4286H310.013V35H313.442V38.4286ZM310.013 35H306.585V31.5714H310.013V35ZM313.442 35H310.013V31.5714H313.442V35ZM316.871 35H313.442V31.5714H316.871V35ZM320.299 35H316.871V31.5714H320.299V35ZM323.728 35H320.299V31.5714H323.728V35ZM323.728 38.4286H320.299V35H323.728V38.4286ZM320.299 38.4286H316.871V35H320.299V38.4286ZM323.728 41.8571H320.299V38.4286H323.728V41.8571ZM327.156 38.4286H323.728V35H327.156V38.4286ZM327.156 41.8571H323.728V38.4286H327.156V41.8571ZM327.156 45.2857H323.728V41.8571H327.156V45.2857ZM327.156 48.7143H323.728V45.2857H327.156V48.7143ZM327.156 52.1429H323.728V48.7143H327.156V52.1429ZM327.156 55.5714H323.728V52.1429H327.156V55.5714ZM323.728 52.1429H320.299V48.7143H323.728V52.1429ZM323.728 48.7143H320.299V45.2857H323.728V48.7143ZM323.728 45.2857H320.299V41.8571H323.728V45.2857ZM316.871 38.4286H313.442V35H316.871V38.4286ZM316.871 55.5714H313.442V52.1429H316.871V55.5714ZM323.728 55.5714H327.156V59H323.728V55.5714ZM316.871 41.8571H320.299V45.2857H316.871V41.8571ZM313.442 41.8571H316.871V45.2857H313.442V41.8571ZM310.013 41.8571H313.442V45.2857H310.013V41.8571ZM306.585 41.8571H310.013V45.2857H306.585V41.8571ZM303.156 45.2857H306.585V48.7143H303.156V45.2857ZM306.585 45.2857H310.013V48.7143H306.585V45.2857ZM316.871 45.2857H320.299V48.7143H316.871V45.2857ZM313.442 45.2857H316.871V48.7143H313.442V45.2857ZM310.013 45.2857H313.442V48.7143H310.013V45.2857ZM330.594 35H334.022V38.4286H330.594V35ZM334.022 38.4286H337.451V41.8571H334.022V38.4286ZM330.594 38.4286H334.022V41.8571H330.594V38.4286ZM330.594 41.8571H334.022V45.2857H330.594V41.8571ZM334.022 41.8571H337.451V45.2857H334.022V41.8571ZM334.022 45.2857H337.451V48.7143H334.022V45.2857ZM337.451 45.2857H340.879V48.7143H337.451V45.2857ZM340.879 45.2857H344.308V48.7143H340.879V45.2857ZM344.308 41.8571H347.737V45.2857H344.308V41.8571ZM340.879 41.8571H344.308V45.2857H340.879V41.8571ZM337.451 41.8571H340.879V45.2857H337.451V41.8571ZM344.308 45.2857H347.737V48.7143H344.308V45.2857ZM347.737 45.2857H351.165V48.7143H347.737V45.2857ZM347.737 48.7143H351.165V52.1429H347.737V48.7143ZM344.308 48.7143H347.737V52.1429H344.308V48.7143ZM344.308 52.1429H347.737V55.5714H344.308V52.1429ZM347.737 52.1429H351.165V55.5714H347.737V52.1429ZM344.308 55.5714H347.737V59H344.308V55.5714ZM340.879 52.1429H344.308V55.5714H340.879V52.1429ZM337.451 52.1429H340.879V55.5714H337.451V52.1429ZM334.022 52.1429H337.451V55.5714H334.022V52.1429ZM330.594 52.1429H334.022V55.5714H330.594V52.1429ZM334.022 55.5714H337.451V59H334.022V55.5714ZM337.451 55.5714H340.879V59H337.451V55.5714ZM340.879 55.5714H344.308V59H340.879V55.5714ZM347.737 35H351.165V38.4286H347.737V35ZM344.308 35H347.737V38.4286H344.308V35ZM344.308 31.5714H347.737V35H344.308V31.5714ZM340.879 31.5714H344.308V35H340.879V31.5714ZM337.451 31.5714H340.879V35H337.451V31.5714ZM334.022 31.5714H337.451V35H334.022V31.5714ZM334.022 35H337.451V38.4286H334.022V35ZM337.451 35H340.879V38.4286H337.451V35ZM340.879 35H344.308V38.4286H340.879V35Z" fill="white"/>
<defs>
<linearGradient id="paint0_linear_3_13" x1="250" y1="0" x2="250" y2="100" gradientUnits="userSpaceOnUse">
<stop offset="0.56" stop-color="#6B8C3C"/>
<stop offset="1"/>
</linearGradient>
</defs>
</svg>
