<svg width="500" height="100" viewBox="0 0 500 100" fill="none" xmlns="http://www.w3.org/2000/svg">
<rect width="500" height="100" rx="45" fill="url(#paint0_linear_3_5)"/>
<path d="M123.094 24.7143H126.522V28.1429H123.094V24.7143ZM126.522 24.7143H129.951V28.1429H126.522V24.7143ZM129.951 24.7143H133.379V28.1429H129.951V24.7143ZM133.379 24.7143H136.808V28.1429H133.379V24.7143ZM136.808 24.7143H140.237V28.1429H136.808V24.7143ZM140.237 24.7143H143.665V28.1429H140.237V24.7143ZM140.237 28.1429H143.665V31.5714H140.237V28.1429ZM136.808 28.1429H140.237V31.5714H136.808V28.1429ZM133.379 28.1429H136.808V31.5714H133.379V28.1429ZM129.951 28.1429H133.379V31.5714H129.951V28.1429ZM126.522 28.1429H129.951V31.5714H126.522V28.1429ZM123.094 28.1429H126.522V31.5714H123.094V28.1429ZM143.665 28.1429H147.094V31.5714H143.665V28.1429ZM140.237 31.5714H143.665V35H140.237V31.5714ZM143.665 31.5714H147.094V35H143.665V31.5714ZM143.665 35H147.094V38.4286H143.665V35ZM143.665 38.4286H147.094V41.8571H143.665V38.4286ZM140.237 38.4286H143.665V41.8571H140.237V38.4286ZM140.237 35H143.665V38.4286H140.237V35ZM140.237 41.8571H143.665V45.2857H140.237V41.8571ZM140.237 45.2857H143.665V48.7143H140.237V45.2857ZM136.808 45.2857H140.237V48.7143H136.808V45.2857ZM136.808 41.8571H140.237V45.2857H136.808V41.8571ZM133.379 41.8571H136.808V45.2857H133.379V41.8571ZM133.379 45.2857H136.808V48.7143H133.379V45.2857ZM129.951 45.2857H133.379V48.7143H129.951V45.2857ZM129.951 41.8571H133.379V45.2857H129.951V41.8571ZM126.522 41.8571H129.951V45.2857H126.522V41.8571ZM123.094 41.8571H126.522V45.2857H123.094V41.8571ZM123.094 45.2857H126.522V48.7143H123.094V45.2857ZM126.522 45.2857H129.951V48.7143H126.522V45.2857ZM123.094 31.5714H126.522V35H123.094V31.5714ZM126.522 31.5714H129.951V35H126.522V31.5714ZM126.522 35H129.951V38.4286H126.522V35ZM126.522 38.4286H129.951V41.8571H126.522V38.4286ZM123.094 35H126.522V38.4286H123.094V35ZM123.094 38.4286H126.522V41.8571H123.094V38.4286ZM123.094 48.7143H126.522V52.1429H123.094V48.7143ZM126.522 48.7143H129.951V52.1429H126.522V48.7143ZM126.522 52.1429H129.951V55.5714H126.522V52.1429ZM126.522 55.5714H129.951V59H126.522V55.5714ZM123.094 55.5714H126.522V59H123.094V55.5714ZM123.094 52.1429H126.522V55.5714H123.094V52.1429ZM143.665 41.8571H147.094V45.2857H143.665V41.8571ZM150.531 35H153.96V38.4286H150.531V35ZM150.531 31.5714H153.96V35H150.531V31.5714ZM153.96 31.5714H157.388V35H153.96V31.5714ZM153.96 35H157.388V38.4286H153.96V35ZM153.96 38.4286H157.388V41.8571H153.96V38.4286ZM153.96 41.8571H157.388V45.2857H153.96V41.8571ZM153.96 45.2857H157.388V48.7143H153.96V45.2857ZM150.531 45.2857H153.96V48.7143H150.531V45.2857ZM150.531 41.8571H153.96V45.2857H150.531V41.8571ZM150.531 38.4286H153.96V41.8571H150.531V38.4286ZM150.531 48.7143H153.96V52.1429H150.531V48.7143ZM153.96 48.7143H157.388V52.1429H153.96V48.7143ZM153.96 52.1429H157.388V55.5714H153.96V52.1429ZM153.96 55.5714H157.388V59H153.96V55.5714ZM150.531 55.5714H153.96V59H150.531V55.5714ZM150.531 52.1429H153.96V55.5714H150.531V52.1429ZM157.388 35H160.817V38.4286H157.388V35ZM160.817 35H164.246V38.4286H160.817V35ZM164.246 35H167.674V38.4286H164.246V35ZM164.246 31.5714H167.674V35H164.246V31.5714ZM160.817 31.5714H164.246V35H160.817V31.5714ZM157.388 38.4286H160.817V41.8571H157.388V38.4286ZM167.674 35H171.103V38.4286H167.674V35ZM164.246 38.4286H167.674V41.8571H164.246V38.4286ZM181.388 31.5714H184.817V35H181.388V31.5714ZM177.96 31.5714H181.388V35H177.96V31.5714ZM177.96 35H181.388V38.4286H177.96V35ZM181.388 35H184.817V38.4286H181.388V35ZM184.817 31.5714H188.246V35H184.817V31.5714ZM188.246 31.5714H191.674V35H188.246V31.5714ZM191.674 31.5714H195.103V35H191.674V31.5714ZM191.674 35H195.103V38.4286H191.674V35ZM188.246 35H191.674V38.4286H188.246V35ZM191.674 41.8571H195.103V45.2857H191.674V41.8571ZM195.103 35H198.531V38.4286H195.103V35ZM195.103 38.4286H198.531V41.8571H195.103V38.4286ZM195.103 41.8571H198.531V45.2857H195.103V41.8571ZM195.103 45.2857H198.531V48.7143H195.103V45.2857ZM195.103 48.7143H198.531V52.1429H195.103V48.7143ZM195.103 52.1429H198.531V55.5714H195.103V52.1429ZM191.674 52.1429H195.103V55.5714H191.674V52.1429ZM191.674 48.7143H195.103V52.1429H191.674V48.7143ZM191.674 45.2857H195.103V48.7143H191.674V45.2857ZM191.674 38.4286H195.103V41.8571H191.674V38.4286ZM188.246 52.1429H191.674V55.5714H188.246V52.1429ZM191.674 55.5714H195.103V59H191.674V55.5714ZM188.246 55.5714H191.674V59H188.246V55.5714ZM184.817 55.5714H188.246V59H184.817V55.5714ZM181.388 55.5714H184.817V59H181.388V55.5714ZM177.96 55.5714H181.388V59H177.96V55.5714ZM177.96 52.1429H181.388V55.5714H177.96V52.1429ZM181.388 52.1429H184.817V55.5714H181.388V52.1429ZM177.96 48.7143H181.388V52.1429H177.96V48.7143ZM174.531 52.1429H177.96V55.5714H174.531V52.1429ZM174.531 48.7143H177.96V52.1429H174.531V48.7143ZM174.531 45.2857H177.96V48.7143H174.531V45.2857ZM174.531 41.8571H177.96V45.2857H174.531V41.8571ZM174.531 38.4286H177.96V41.8571H174.531V38.4286ZM174.531 35H177.96V38.4286H174.531V35ZM177.96 38.4286H181.388V41.8571H177.96V38.4286ZM177.96 41.8571H181.388V45.2857H177.96V41.8571ZM177.96 45.2857H181.388V48.7143H177.96V45.2857ZM184.817 52.1429H188.246V55.5714H184.817V52.1429ZM184.817 35H188.246V38.4286H184.817V35ZM215.683 24.7143H219.112V28.1429H215.683V24.7143ZM215.683 28.1429H219.112V31.5714H215.683V28.1429ZM212.254 28.1429H215.683V31.5714H212.254V28.1429ZM212.254 24.7143H215.683V28.1429H212.254V24.7143ZM208.826 24.7143H212.254V28.1429H208.826V24.7143ZM208.826 28.1429H212.254V31.5714H208.826V28.1429ZM208.826 31.5714H212.254V35H208.826V31.5714ZM205.397 28.1429H208.826V31.5714H205.397V28.1429ZM205.397 31.5714H208.826V35H205.397V31.5714ZM205.397 35H208.826V38.4286H205.397V35ZM205.397 38.4286H208.826V41.8571H205.397V38.4286ZM208.826 38.4286H212.254V41.8571H208.826V38.4286ZM208.826 35H212.254V38.4286H208.826V35ZM205.397 55.5714H208.826V59H205.397V55.5714ZM205.397 52.1429H208.826V55.5714H205.397V52.1429ZM205.397 48.7143H208.826V52.1429H205.397V48.7143ZM205.397 45.2857H208.826V48.7143H205.397V45.2857ZM205.397 41.8571H208.826V45.2857H205.397V41.8571ZM208.826 41.8571H212.254V45.2857H208.826V41.8571ZM208.826 45.2857H212.254V48.7143H208.826V45.2857ZM208.826 48.7143H212.254V52.1429H208.826V48.7143ZM208.826 52.1429H212.254V55.5714H208.826V52.1429ZM208.826 55.5714H212.254V59H208.826V55.5714ZM201.969 35H205.397V38.4286H201.969V35ZM212.254 35H215.683V38.4286H212.254V35ZM215.683 35H219.112V38.4286H215.683V35ZM201.969 38.4286H205.397V41.8571H201.969V38.4286ZM212.254 38.4286H215.683V41.8571H212.254V38.4286ZM215.683 38.4286H219.112V41.8571H215.683V38.4286ZM222.531 24.7143H229.388V31.5714H222.531V24.7143ZM222.531 35H229.388V59H222.531V35ZM239.701 31.5714H243.129V35H239.701V31.5714ZM236.272 31.5714H239.701V35H236.272V31.5714ZM236.272 35H239.701V38.4286H236.272V35ZM239.701 35H243.129V38.4286H239.701V35ZM243.129 31.5714H246.558V35H243.129V31.5714ZM246.558 31.5714H249.987V35H246.558V31.5714ZM249.987 31.5714H253.415V35H249.987V31.5714ZM249.987 35H253.415V38.4286H249.987V35ZM246.558 35H249.987V38.4286H246.558V35ZM253.415 35H256.844V38.4286H253.415V35ZM253.415 38.4286H256.844V41.8571H253.415V38.4286ZM253.415 48.7143H256.844V52.1429H253.415V48.7143ZM253.415 52.1429H256.844V55.5714H253.415V52.1429ZM249.987 52.1429H253.415V55.5714H249.987V52.1429ZM249.987 48.7143H253.415V52.1429H249.987V48.7143ZM249.987 38.4286H253.415V41.8571H249.987V38.4286ZM246.558 52.1429H249.987V55.5714H246.558V52.1429ZM249.987 55.5714H253.415V59H249.987V55.5714ZM246.558 55.5714H249.987V59H246.558V55.5714ZM243.129 55.5714H246.558V59H243.129V55.5714ZM239.701 55.5714H243.129V59H239.701V55.5714ZM236.272 55.5714H239.701V59H236.272V55.5714ZM236.272 52.1429H239.701V55.5714H236.272V52.1429ZM239.701 52.1429H243.129V55.5714H239.701V52.1429ZM236.272 48.7143H239.701V52.1429H236.272V48.7143ZM232.844 52.1429H236.272V55.5714H232.844V52.1429ZM232.844 48.7143H236.272V52.1429H232.844V48.7143ZM232.844 45.2857H236.272V48.7143H232.844V45.2857ZM232.844 41.8571H236.272V45.2857H232.844V41.8571ZM232.844 38.4286H236.272V41.8571H232.844V38.4286ZM232.844 35H236.272V38.4286H232.844V35ZM236.272 38.4286H239.701V41.8571H236.272V38.4286ZM236.272 41.8571H239.701V45.2857H236.272V41.8571ZM236.272 45.2857H239.701V48.7143H236.272V45.2857ZM243.129 52.1429H246.558V55.5714H243.129V52.1429ZM243.129 35H246.558V38.4286H243.129V35ZM260.281 24.7143H267.138V31.5714H260.281V24.7143ZM260.281 35H267.138V59H260.281V35ZM277.451 31.5714H280.879V35H277.451V31.5714ZM274.022 31.5714H277.451V35H274.022V31.5714ZM274.022 35H277.451V38.4286H274.022V35ZM277.451 35H280.879V38.4286H277.451V35ZM280.879 31.5714H284.308V35H280.879V31.5714ZM284.308 31.5714H287.737V35H284.308V31.5714ZM287.737 31.5714H291.165V35H287.737V31.5714ZM287.737 35H291.165V38.4286H287.737V35ZM284.308 35H287.737V38.4286H284.308V35ZM291.165 35H294.594V38.4286H291.165V35ZM291.165 38.4286H294.594V41.8571H291.165V38.4286ZM291.165 52.1429H294.594V55.5714H291.165V52.1429ZM287.737 52.1429H291.165V55.5714H287.737V52.1429ZM287.737 38.4286H291.165V41.8571H287.737V38.4286ZM284.308 52.1429H287.737V55.5714H284.308V52.1429ZM287.737 55.5714H291.165V59H287.737V55.5714ZM284.308 55.5714H287.737V59H284.308V55.5714ZM280.879 55.5714H284.308V59H280.879V55.5714ZM277.451 55.5714H280.879V59H277.451V55.5714ZM274.022 55.5714H277.451V59H274.022V55.5714ZM274.022 52.1429H277.451V55.5714H274.022V52.1429ZM277.451 52.1429H280.879V55.5714H277.451V52.1429ZM274.022 48.7143H277.451V52.1429H274.022V48.7143ZM270.594 52.1429H274.022V55.5714H270.594V52.1429ZM270.594 48.7143H274.022V52.1429H270.594V48.7143ZM270.594 45.2857H274.022V48.7143H270.594V45.2857ZM270.594 41.8571H274.022V45.2857H270.594V41.8571ZM270.594 38.4286H274.022V41.8571H270.594V38.4286ZM270.594 35H274.022V38.4286H270.594V35ZM274.022 38.4286H277.451V41.8571H274.022V38.4286ZM274.022 41.8571H277.451V45.2857H274.022V41.8571ZM274.022 45.2857H277.451V48.7143H274.022V45.2857ZM280.879 52.1429H284.308V55.5714H280.879V52.1429ZM280.879 35H284.308V38.4286H280.879V35ZM287.737 41.8571H291.165V45.2857H287.737V41.8571ZM291.165 41.8571H294.594V45.2857H291.165V41.8571ZM277.451 45.2857H280.879V48.7143H277.451V45.2857ZM280.879 45.2857H284.308V48.7143H280.879V45.2857ZM284.308 45.2857H287.737V48.7143H284.308V45.2857ZM287.737 45.2857H291.165V48.7143H287.737V45.2857ZM291.165 45.2857H294.594V48.7143H291.165V45.2857ZM284.308 41.8571H287.737V45.2857H284.308V41.8571ZM280.879 41.8571H284.308V45.2857H280.879V41.8571ZM277.451 41.8571H280.879V45.2857H277.451V41.8571ZM298.031 35H301.46V38.4286H298.031V35ZM298.031 31.5714H301.46V35H298.031V31.5714ZM301.46 31.5714H304.888V35H301.46V31.5714ZM301.46 35H304.888V38.4286H301.46V35ZM301.46 38.4286H304.888V41.8571H301.46V38.4286ZM301.46 41.8571H304.888V45.2857H301.46V41.8571ZM301.46 45.2857H304.888V48.7143H301.46V45.2857ZM298.031 45.2857H301.46V48.7143H298.031V45.2857ZM298.031 41.8571H301.46V45.2857H298.031V41.8571ZM298.031 38.4286H301.46V41.8571H298.031V38.4286ZM298.031 48.7143H301.46V52.1429H298.031V48.7143ZM301.46 48.7143H304.888V52.1429H301.46V48.7143ZM301.46 52.1429H304.888V55.5714H301.46V52.1429ZM301.46 55.5714H304.888V59H301.46V55.5714ZM298.031 55.5714H301.46V59H298.031V55.5714ZM298.031 52.1429H301.46V55.5714H298.031V52.1429ZM315.174 55.5714H318.603V59H315.174V55.5714ZM318.603 55.5714H322.031V59H318.603V55.5714ZM318.603 52.1429H322.031V55.5714H318.603V52.1429ZM318.603 48.7143H322.031V52.1429H318.603V48.7143ZM318.603 45.2857H322.031V48.7143H318.603V45.2857ZM318.603 41.8571H322.031V45.2857H318.603V41.8571ZM318.603 38.4286H322.031V41.8571H318.603V38.4286ZM318.603 35H322.031V38.4286H318.603V35ZM315.174 41.8571H318.603V45.2857H315.174V41.8571ZM315.174 45.2857H318.603V48.7143H315.174V45.2857ZM315.174 48.7143H318.603V52.1429H315.174V48.7143ZM315.174 52.1429H318.603V55.5714H315.174V52.1429ZM315.174 38.4286H318.603V41.8571H315.174V38.4286ZM304.888 35H308.317V38.4286H304.888V35ZM308.317 35H311.746V38.4286H308.317V35ZM311.746 35H315.174V38.4286H311.746V35ZM311.746 31.5714H315.174V35H311.746V31.5714ZM315.174 31.5714H318.603V35H315.174V31.5714ZM315.174 35H318.603V38.4286H315.174V35ZM308.317 31.5714H311.746V35H308.317V31.5714ZM332.326 31.5714H335.754V35H332.326V31.5714ZM328.897 31.5714H332.326V35H328.897V31.5714ZM328.897 35H332.326V38.4286H328.897V35ZM332.326 35H335.754V38.4286H332.326V35ZM335.754 31.5714H339.183V35H335.754V31.5714ZM339.183 31.5714H342.612V35H339.183V31.5714ZM342.612 31.5714H346.04V35H342.612V31.5714ZM342.612 35H346.04V38.4286H342.612V35ZM339.183 35H342.612V38.4286H339.183V35ZM346.04 35H349.469V38.4286H346.04V35ZM346.04 38.4286H349.469V41.8571H346.04V38.4286ZM346.04 48.7143H349.469V52.1429H346.04V48.7143ZM346.04 52.1429H349.469V55.5714H346.04V52.1429ZM342.612 52.1429H346.04V55.5714H342.612V52.1429ZM342.612 48.7143H346.04V52.1429H342.612V48.7143ZM342.612 38.4286H346.04V41.8571H342.612V38.4286ZM339.183 52.1429H342.612V55.5714H339.183V52.1429ZM342.612 55.5714H346.04V59H342.612V55.5714ZM339.183 55.5714H342.612V59H339.183V55.5714ZM335.754 55.5714H339.183V59H335.754V55.5714ZM332.326 55.5714H335.754V59H332.326V55.5714ZM328.897 55.5714H332.326V59H328.897V55.5714ZM328.897 52.1429H332.326V55.5714H328.897V52.1429ZM332.326 52.1429H335.754V55.5714H332.326V52.1429ZM328.897 48.7143H332.326V52.1429H328.897V48.7143ZM325.469 52.1429H328.897V55.5714H325.469V52.1429ZM325.469 48.7143H328.897V52.1429H325.469V48.7143ZM325.469 45.2857H328.897V48.7143H325.469V45.2857ZM325.469 41.8571H328.897V45.2857H325.469V41.8571ZM325.469 38.4286H328.897V41.8571H325.469V38.4286ZM325.469 35H328.897V38.4286H325.469V35ZM328.897 38.4286H332.326V41.8571H328.897V38.4286ZM328.897 41.8571H332.326V45.2857H328.897V41.8571ZM328.897 45.2857H332.326V48.7143H328.897V45.2857ZM335.754 52.1429H339.183V55.5714H335.754V52.1429ZM335.754 35H339.183V38.4286H335.754V35ZM352.906 31.5714H356.335V35H352.906V31.5714ZM356.335 31.5714H359.763V35H356.335V31.5714ZM356.335 35H359.763V38.4286H356.335V35ZM356.335 38.4286H359.763V41.8571H356.335V38.4286ZM356.335 41.8571H359.763V45.2857H356.335V41.8571ZM352.906 38.4286H356.335V41.8571H352.906V38.4286ZM352.906 35H356.335V38.4286H352.906V35ZM352.906 41.8571H356.335V45.2857H352.906V41.8571ZM352.906 45.2857H356.335V48.7143H352.906V45.2857ZM356.335 45.2857H359.763V48.7143H356.335V45.2857ZM356.335 48.7143H359.763V52.1429H356.335V48.7143ZM359.763 48.7143H363.192V52.1429H359.763V48.7143ZM359.763 52.1429H363.192V55.5714H359.763V52.1429ZM363.192 52.1429H366.621V55.5714H363.192V52.1429ZM366.621 52.1429H370.049V55.5714H366.621V52.1429ZM366.621 48.7143H370.049V52.1429H366.621V48.7143ZM366.621 45.2857H370.049V48.7143H366.621V45.2857ZM370.049 45.2857H373.478V48.7143H370.049V45.2857ZM370.049 48.7143H373.478V52.1429H370.049V48.7143ZM370.049 41.8571H373.478V45.2857H370.049V41.8571ZM366.621 41.8571H370.049V45.2857H366.621V41.8571ZM366.621 31.5714H370.049V35H366.621V31.5714ZM370.049 31.5714H373.478V35H370.049V31.5714ZM370.049 35H373.478V38.4286H370.049V35ZM370.049 38.4286H373.478V41.8571H370.049V38.4286ZM366.621 35H370.049V38.4286H366.621V35ZM366.621 38.4286H370.049V41.8571H366.621V38.4286ZM363.192 55.5714H366.621V59H363.192V55.5714ZM359.763 55.5714H363.192V59H359.763V55.5714ZM359.763 59H363.192V62.4286H359.763V59ZM356.335 59H359.763V62.4286H356.335V59ZM356.335 55.5714H359.763V59H356.335V55.5714ZM356.335 62.4286H359.763V65.8571H356.335V62.4286ZM352.906 62.4286H356.335V65.8571H352.906V62.4286ZM352.906 59H356.335V62.4286H352.906V59ZM363.192 48.7143H366.621V52.1429H363.192V48.7143ZM359.763 45.2857H363.192V48.7143H359.763V45.2857Z" fill="white"/>
<defs>
<linearGradient id="paint0_linear_3_5" x1="250" y1="0" x2="250" y2="100" gradientUnits="userSpaceOnUse">
<stop offset="0.56" stop-color="#6B8C3C"/>
<stop offset="1"/>
</linearGradient>
</defs>
</svg>
