<svg width="500" height="100" viewBox="0 0 500 100" fill="none" xmlns="http://www.w3.org/2000/svg">
<rect width="500" height="100" rx="45" fill="url(#paint0_linear_3_10)"/>
<path d="M130 55.5714H133.429V59H130V55.5714ZM130 52.1429H133.429V55.5714H130V52.1429ZM130 48.7143H133.429V52.1429H130V48.7143ZM130 45.2857H133.429V48.7143H130V45.2857ZM130 41.8571H133.429V45.2857H130V41.8571ZM130 38.4286H133.429V41.8571H130V38.4286ZM133.429 38.4286H136.857V41.8571H133.429V38.4286ZM133.429 35H136.857V38.4286H133.429V35ZM133.429 31.5714H136.857V35H133.429V31.5714ZM133.429 28.1429H136.857V31.5714H133.429V28.1429ZM130 28.1429H133.429V31.5714H130V28.1429ZM130 24.7143H133.429V28.1429H130V24.7143ZM130 31.5714H133.429V35H130V31.5714ZM130 35H133.429V38.4286H130V35ZM133.429 24.7143H136.857V28.1429H133.429V24.7143ZM133.429 41.8571H136.857V45.2857H133.429V41.8571ZM133.429 45.2857H136.857V48.7143H133.429V45.2857ZM133.429 48.7143H136.857V52.1429H133.429V48.7143ZM133.429 52.1429H136.857V55.5714H133.429V52.1429ZM133.429 55.5714H136.857V59H133.429V55.5714ZM136.857 31.5714H140.286V35H136.857V31.5714ZM136.857 35H140.286V38.4286H136.857V35ZM140.286 35H143.714V38.4286H140.286V35ZM140.286 38.4286H143.714V41.8571H140.286V38.4286ZM143.714 38.4286H147.143V41.8571H143.714V38.4286ZM143.714 41.8571H147.143V45.2857H143.714V41.8571ZM147.143 38.4286H150.571V41.8571H147.143V38.4286ZM147.143 35H150.571V38.4286H147.143V35ZM150.571 35H154V38.4286H150.571V35ZM150.571 31.5714H154V35H150.571V31.5714ZM154 24.7143H157.429V28.1429H154V24.7143ZM154 28.1429H157.429V31.5714H154V28.1429ZM154 31.5714H157.429V35H154V31.5714ZM154 35H157.429V38.4286H154V35ZM154 38.4286H157.429V41.8571H154V38.4286ZM154 41.8571H157.429V45.2857H154V41.8571ZM154 45.2857H157.429V48.7143H154V45.2857ZM154 48.7143H157.429V52.1429H154V48.7143ZM154 52.1429H157.429V55.5714H154V52.1429ZM154 55.5714H157.429V59H154V55.5714ZM157.429 55.5714H160.857V59H157.429V55.5714ZM157.429 52.1429H160.857V55.5714H157.429V52.1429ZM157.429 48.7143H160.857V52.1429H157.429V48.7143ZM157.429 45.2857H160.857V48.7143H157.429V45.2857ZM157.429 41.8571H160.857V45.2857H157.429V41.8571ZM157.429 38.4286H160.857V41.8571H157.429V38.4286ZM157.429 35H160.857V38.4286H157.429V35ZM157.429 31.5714H160.857V35H157.429V31.5714ZM157.429 28.1429H160.857V31.5714H157.429V28.1429ZM157.429 24.7143H160.857V28.1429H157.429V24.7143ZM136.857 28.1429H140.286V31.5714H136.857V28.1429ZM140.286 31.5714H143.714V35H140.286V31.5714ZM143.714 35H147.143V38.4286H143.714V35ZM147.143 31.5714H150.571V35H147.143V31.5714ZM150.571 28.1429H154V31.5714H150.571V28.1429ZM164.312 31.5714H167.741V35H164.312V31.5714ZM167.741 31.5714H171.17V35H167.741V31.5714ZM167.741 35H171.17V38.4286H167.741V35ZM167.741 38.4286H171.17V41.8571H167.741V38.4286ZM167.741 41.8571H171.17V45.2857H167.741V41.8571ZM164.312 38.4286H167.741V41.8571H164.312V38.4286ZM164.312 35H167.741V38.4286H164.312V35ZM164.312 41.8571H167.741V45.2857H164.312V41.8571ZM164.312 45.2857H167.741V48.7143H164.312V45.2857ZM167.741 45.2857H171.17V48.7143H167.741V45.2857ZM167.741 48.7143H171.17V52.1429H167.741V48.7143ZM171.17 48.7143H174.598V52.1429H171.17V48.7143ZM171.17 52.1429H174.598V55.5714H171.17V52.1429ZM174.598 52.1429H178.027V55.5714H174.598V52.1429ZM178.027 52.1429H181.455V55.5714H178.027V52.1429ZM178.027 48.7143H181.455V52.1429H178.027V48.7143ZM178.027 45.2857H181.455V48.7143H178.027V45.2857ZM181.455 45.2857H184.884V48.7143H181.455V45.2857ZM181.455 48.7143H184.884V52.1429H181.455V48.7143ZM181.455 41.8571H184.884V45.2857H181.455V41.8571ZM178.027 41.8571H181.455V45.2857H178.027V41.8571ZM178.027 31.5714H181.455V35H178.027V31.5714ZM181.455 31.5714H184.884V35H181.455V31.5714ZM181.455 35H184.884V38.4286H181.455V35ZM181.455 38.4286H184.884V41.8571H181.455V38.4286ZM178.027 35H181.455V38.4286H178.027V35ZM178.027 38.4286H181.455V41.8571H178.027V38.4286ZM174.598 55.5714H178.027V59H174.598V55.5714ZM171.17 55.5714H174.598V59H171.17V55.5714ZM171.17 59H174.598V62.4286H171.17V59ZM167.741 59H171.17V62.4286H167.741V59ZM167.741 55.5714H171.17V59H167.741V55.5714ZM167.741 62.4286H171.17V65.8571H167.741V62.4286ZM164.312 62.4286H167.741V65.8571H164.312V62.4286ZM164.312 59H167.741V62.4286H164.312V59ZM174.598 48.7143H178.027V52.1429H174.598V48.7143ZM171.17 45.2857H174.598V48.7143H171.17V45.2857ZM202 35H205.429V38.4286H202V35ZM202 31.5714H205.429V35H202V31.5714ZM205.429 31.5714H208.857V35H205.429V31.5714ZM205.429 35H208.857V38.4286H205.429V35ZM205.429 38.4286H208.857V41.8571H205.429V38.4286ZM205.429 41.8571H208.857V45.2857H205.429V41.8571ZM205.429 45.2857H208.857V48.7143H205.429V45.2857ZM202 45.2857H205.429V48.7143H202V45.2857ZM202 41.8571H205.429V45.2857H202V41.8571ZM202 38.4286H205.429V41.8571H202V38.4286ZM202 48.7143H205.429V52.1429H202V48.7143ZM205.429 48.7143H208.857V52.1429H205.429V48.7143ZM205.429 52.1429H208.857V55.5714H205.429V52.1429ZM205.429 55.5714H208.857V59H205.429V55.5714ZM202 55.5714H205.429V59H202V55.5714ZM202 52.1429H205.429V55.5714H202V52.1429ZM219.143 55.5714H222.571V59H219.143V55.5714ZM222.571 52.1429H226V55.5714H222.571V52.1429ZM222.571 48.7143H226V52.1429H222.571V48.7143ZM222.571 45.2857H226V48.7143H222.571V45.2857ZM222.571 41.8571H226V45.2857H222.571V41.8571ZM222.571 38.4286H226V41.8571H222.571V38.4286ZM222.571 35H226V38.4286H222.571V35ZM219.143 41.8571H222.571V45.2857H219.143V41.8571ZM219.143 45.2857H222.571V48.7143H219.143V45.2857ZM219.143 48.7143H222.571V52.1429H219.143V48.7143ZM219.143 52.1429H222.571V55.5714H219.143V52.1429ZM219.143 38.4286H222.571V41.8571H219.143V38.4286ZM208.857 35H212.286V38.4286H208.857V35ZM212.286 35H215.714V38.4286H212.286V35ZM215.714 35H219.143V38.4286H215.714V35ZM215.714 31.5714H219.143V35H215.714V31.5714ZM219.143 31.5714H222.571V35H219.143V31.5714ZM219.143 35H222.571V38.4286H219.143V35ZM212.286 31.5714H215.714V35H212.286V31.5714ZM208.857 55.5714H212.286V59H208.857V55.5714ZM212.286 55.5714H215.714V59H212.286V55.5714ZM215.714 55.5714H219.143V59H215.714V55.5714ZM215.714 52.1429H219.143V55.5714H215.714V52.1429ZM212.286 52.1429H215.714V55.5714H212.286V52.1429ZM208.857 52.1429H212.286V55.5714H208.857V52.1429ZM202 59H205.429V62.4286H202V59ZM205.429 59H208.857V62.4286H205.429V59ZM205.429 62.4286H208.857V65.8571H205.429V62.4286ZM202 62.4286H205.429V65.8571H202V62.4286ZM229.438 35H232.866V38.4286H229.438V35ZM229.438 31.5714H232.866V35H229.438V31.5714ZM232.866 31.5714H236.295V35H232.866V31.5714ZM232.866 35H236.295V38.4286H232.866V35ZM232.866 38.4286H236.295V41.8571H232.866V38.4286ZM232.866 41.8571H236.295V45.2857H232.866V41.8571ZM232.866 45.2857H236.295V48.7143H232.866V45.2857ZM229.438 45.2857H232.866V48.7143H229.438V45.2857ZM229.438 41.8571H232.866V45.2857H229.438V41.8571ZM229.438 38.4286H232.866V41.8571H229.438V38.4286ZM229.438 48.7143H232.866V52.1429H229.438V48.7143ZM232.866 48.7143H236.295V52.1429H232.866V48.7143ZM232.866 52.1429H236.295V55.5714H232.866V52.1429ZM232.866 55.5714H236.295V59H232.866V55.5714ZM229.438 55.5714H232.866V59H229.438V55.5714ZM229.438 52.1429H232.866V55.5714H229.438V52.1429ZM236.295 35H239.723V38.4286H236.295V35ZM239.723 35H243.152V38.4286H239.723V35ZM243.152 35H246.58V38.4286H243.152V35ZM243.152 31.5714H246.58V35H243.152V31.5714ZM239.723 31.5714H243.152V35H239.723V31.5714ZM236.295 38.4286H239.723V41.8571H236.295V38.4286ZM246.58 35H250.009V38.4286H246.58V35ZM243.152 38.4286H246.58V41.8571H243.152V38.4286ZM260.295 31.5714H263.723V35H260.295V31.5714ZM256.866 31.5714H260.295V35H256.866V31.5714ZM256.866 35H260.295V38.4286H256.866V35ZM260.295 35H263.723V38.4286H260.295V35ZM263.723 31.5714H267.152V35H263.723V31.5714ZM267.152 31.5714H270.58V35H267.152V31.5714ZM270.58 31.5714H274.009V35H270.58V31.5714ZM270.58 35H274.009V38.4286H270.58V35ZM267.152 35H270.58V38.4286H267.152V35ZM270.58 41.8571H274.009V45.2857H270.58V41.8571ZM274.009 35H277.438V38.4286H274.009V35ZM274.009 38.4286H277.438V41.8571H274.009V38.4286ZM274.009 41.8571H277.438V45.2857H274.009V41.8571ZM274.009 45.2857H277.438V48.7143H274.009V45.2857ZM274.009 48.7143H277.438V52.1429H274.009V48.7143ZM274.009 52.1429H277.438V55.5714H274.009V52.1429ZM270.58 52.1429H274.009V55.5714H270.58V52.1429ZM270.58 48.7143H274.009V52.1429H270.58V48.7143ZM270.58 45.2857H274.009V48.7143H270.58V45.2857ZM270.58 38.4286H274.009V41.8571H270.58V38.4286ZM267.152 52.1429H270.58V55.5714H267.152V52.1429ZM270.58 55.5714H274.009V59H270.58V55.5714ZM267.152 55.5714H270.58V59H267.152V55.5714ZM263.723 55.5714H267.152V59H263.723V55.5714ZM260.295 55.5714H263.723V59H260.295V55.5714ZM256.866 55.5714H260.295V59H256.866V55.5714ZM256.866 52.1429H260.295V55.5714H256.866V52.1429ZM260.295 52.1429H263.723V55.5714H260.295V52.1429ZM256.866 48.7143H260.295V52.1429H256.866V48.7143ZM253.438 52.1429H256.866V55.5714H253.438V52.1429ZM253.438 48.7143H256.866V52.1429H253.438V48.7143ZM253.438 45.2857H256.866V48.7143H253.438V45.2857ZM253.438 41.8571H256.866V45.2857H253.438V41.8571ZM253.438 38.4286H256.866V41.8571H253.438V38.4286ZM253.438 35H256.866V38.4286H253.438V35ZM256.866 38.4286H260.295V41.8571H256.866V38.4286ZM256.866 41.8571H260.295V45.2857H256.866V41.8571ZM256.866 45.2857H260.295V48.7143H256.866V45.2857ZM263.723 52.1429H267.152V55.5714H263.723V52.1429ZM263.723 35H267.152V38.4286H263.723V35ZM284.304 24.7143H291.161V31.5714H284.304V24.7143ZM280.875 59H284.304V35H291.161V62.4286H287.732V65.8571H280.875V59ZM301.42 31.5714H304.848V35H301.42V31.5714ZM297.991 31.5714H301.42V35H297.991V31.5714ZM297.991 35H301.42V38.4286H297.991V35ZM301.42 35H304.848V38.4286H301.42V35ZM304.848 31.5714H308.277V35H304.848V31.5714ZM308.277 31.5714H311.705V35H308.277V31.5714ZM311.705 31.5714H315.134V35H311.705V31.5714ZM311.705 35H315.134V38.4286H311.705V35ZM308.277 35H311.705V38.4286H308.277V35ZM315.134 35H318.562V38.4286H315.134V35ZM315.134 38.4286H318.562V41.8571H315.134V38.4286ZM315.134 52.1429H318.562V55.5714H315.134V52.1429ZM311.705 52.1429H315.134V55.5714H311.705V52.1429ZM311.705 38.4286H315.134V41.8571H311.705V38.4286ZM308.277 52.1429H311.705V55.5714H308.277V52.1429ZM311.705 55.5714H315.134V59H311.705V55.5714ZM308.277 55.5714H311.705V59H308.277V55.5714ZM304.848 55.5714H308.277V59H304.848V55.5714ZM301.42 55.5714H304.848V59H301.42V55.5714ZM297.991 55.5714H301.42V59H297.991V55.5714ZM297.991 52.1429H301.42V55.5714H297.991V52.1429ZM301.42 52.1429H304.848V55.5714H301.42V52.1429ZM297.991 48.7143H301.42V52.1429H297.991V48.7143ZM294.562 52.1429H297.991V55.5714H294.562V52.1429ZM294.562 48.7143H297.991V52.1429H294.562V48.7143ZM294.562 45.2857H297.991V48.7143H294.562V45.2857ZM294.562 41.8571H297.991V45.2857H294.562V41.8571ZM294.562 38.4286H297.991V41.8571H294.562V38.4286ZM294.562 35H297.991V38.4286H294.562V35ZM297.991 38.4286H301.42V41.8571H297.991V38.4286ZM297.991 41.8571H301.42V45.2857H297.991V41.8571ZM297.991 45.2857H301.42V48.7143H297.991V45.2857ZM304.848 52.1429H308.277V55.5714H304.848V52.1429ZM304.848 35H308.277V38.4286H304.848V35ZM311.705 41.8571H315.134V45.2857H311.705V41.8571ZM315.134 41.8571H318.562V45.2857H315.134V41.8571ZM301.42 45.2857H304.848V48.7143H301.42V45.2857ZM304.848 45.2857H308.277V48.7143H304.848V45.2857ZM308.277 45.2857H311.705V48.7143H308.277V45.2857ZM311.705 45.2857H315.134V48.7143H311.705V45.2857ZM315.134 45.2857H318.562V48.7143H315.134V45.2857ZM308.277 41.8571H311.705V45.2857H308.277V41.8571ZM304.848 41.8571H308.277V45.2857H304.848V41.8571ZM301.42 41.8571H304.848V45.2857H301.42V41.8571ZM328.857 31.5714H332.286V35H328.857V31.5714ZM325.429 31.5714H328.857V35H325.429V31.5714ZM325.429 35H328.857V38.4286H325.429V35ZM328.857 35H332.286V38.4286H328.857V35ZM332.286 31.5714H335.714V35H332.286V31.5714ZM335.714 31.5714H339.143V35H335.714V31.5714ZM339.143 31.5714H342.571V35H339.143V31.5714ZM339.143 35H342.571V38.4286H339.143V35ZM335.714 35H339.143V38.4286H335.714V35ZM342.571 35H346V38.4286H342.571V35ZM342.571 38.4286H346V41.8571H342.571V38.4286ZM342.571 48.7143H346V52.1429H342.571V48.7143ZM342.571 52.1429H346V55.5714H342.571V52.1429ZM339.143 52.1429H342.571V55.5714H339.143V52.1429ZM339.143 48.7143H342.571V52.1429H339.143V48.7143ZM339.143 38.4286H342.571V41.8571H339.143V38.4286ZM335.714 52.1429H339.143V55.5714H335.714V52.1429ZM339.143 55.5714H342.571V59H339.143V55.5714ZM335.714 55.5714H339.143V59H335.714V55.5714ZM332.286 55.5714H335.714V59H332.286V55.5714ZM328.857 55.5714H332.286V59H328.857V55.5714ZM325.429 55.5714H328.857V59H325.429V55.5714ZM325.429 52.1429H328.857V55.5714H325.429V52.1429ZM328.857 52.1429H332.286V55.5714H328.857V52.1429ZM325.429 48.7143H328.857V52.1429H325.429V48.7143ZM322 52.1429H325.429V55.5714H322V52.1429ZM322 48.7143H325.429V52.1429H322V48.7143ZM322 45.2857H325.429V48.7143H322V45.2857ZM322 41.8571H325.429V45.2857H322V41.8571ZM322 38.4286H325.429V41.8571H322V38.4286ZM322 35H325.429V38.4286H322V35ZM325.429 38.4286H328.857V41.8571H325.429V38.4286ZM325.429 41.8571H328.857V45.2857H325.429V41.8571ZM325.429 45.2857H328.857V48.7143H325.429V45.2857ZM332.286 52.1429H335.714V55.5714H332.286V52.1429ZM332.286 35H335.714V38.4286H332.286V35ZM363.152 52.1429H366.58V55.5714H363.152V52.1429ZM363.152 55.5714H366.58V59H363.152V55.5714ZM359.723 55.5714H363.152V59H359.723V55.5714ZM359.723 52.1429H363.152V55.5714H359.723V52.1429ZM356.295 55.5714H359.723V59H356.295V55.5714ZM356.295 52.1429H359.723V55.5714H356.295V52.1429ZM352.866 52.1429H356.295V55.5714H352.866V52.1429ZM352.866 48.7143H356.295V52.1429H352.866V48.7143ZM352.866 45.2857H356.295V48.7143H352.866V45.2857ZM352.866 41.8571H356.295V45.2857H352.866V41.8571ZM352.866 38.4286H356.295V41.8571H352.866V38.4286ZM352.866 35H356.295V38.4286H352.866V35ZM356.295 45.2857H359.723V48.7143H356.295V45.2857ZM356.295 48.7143H359.723V52.1429H356.295V48.7143ZM356.295 41.8571H359.723V45.2857H356.295V41.8571ZM356.295 38.4286H359.723V41.8571H356.295V38.4286ZM356.295 24.7143H359.723V28.1429H356.295V24.7143ZM356.295 28.1429H359.723V31.5714H356.295V28.1429ZM356.295 31.5714H359.723V35H356.295V31.5714ZM356.295 35H359.723V38.4286H356.295V35ZM352.866 31.5714H356.295V35H352.866V31.5714ZM349.438 35H352.866V38.4286H349.438V35ZM359.723 35H363.152V38.4286H359.723V35ZM363.152 35H366.58V38.4286H363.152V35ZM352.866 28.1429H356.295V31.5714H352.866V28.1429ZM349.438 38.4286H352.866V41.8571H349.438V38.4286ZM359.723 38.4286H363.152V41.8571H359.723V38.4286ZM363.152 38.4286H366.58V41.8571H363.152V38.4286Z" fill="white"/>
<defs>
<linearGradient id="paint0_linear_3_10" x1="250" y1="0" x2="250" y2="100" gradientUnits="userSpaceOnUse">
<stop offset="0.56" stop-color="#6B8C3C"/>
<stop offset="1"/>
</linearGradient>
</defs>
</svg>
